<svg xmlns="http://www.w3.org/2000/svg" xmlns:xlink="http://www.w3.org/1999/xlink" width="1640" zoomAndPan="magnify" viewBox="0 0 1230 149.999998" height="200" preserveAspectRatio="xMidYMid meet" version="1.0"><defs><g/><clipPath id="c7b843e71a"><path d="M 462 60 L 878 60 L 878 145 L 462 145 Z M 462 60 " clip-rule="nonzero"/></clipPath><clipPath id="ce2027c001"><path d="M 464.511719 33.058594 L 952.421875 51.277344 L 948.757812 149.457031 L 460.847656 131.238281 Z M 464.511719 33.058594 " clip-rule="nonzero"/></clipPath><clipPath id="326a51eb37"><path d="M 464.511719 33.058594 L 952.421875 51.277344 L 948.757812 149.457031 L 460.847656 131.238281 Z M 464.511719 33.058594 " clip-rule="nonzero"/></clipPath><clipPath id="bd90b7a45a"><path d="M 859 51 L 952 51 L 952 120 L 859 120 Z M 859 51 " clip-rule="nonzero"/></clipPath><clipPath id="6cc3bdbfbb"><path d="M 464.511719 33.058594 L 952.421875 51.277344 L 948.757812 149.457031 L 460.847656 131.238281 Z M 464.511719 33.058594 " clip-rule="nonzero"/></clipPath><clipPath id="35ce78eaea"><path d="M 464.511719 33.058594 L 952.421875 51.277344 L 948.757812 149.457031 L 460.847656 131.238281 Z M 464.511719 33.058594 " clip-rule="nonzero"/></clipPath></defs><g fill="#ffffff" fill-opacity="1"><g transform="translate(442.927147, 99.738017)"><g><path d="M 7.640625 -38.546875 C 5.953125 -34.535156 4.425781 -30.726562 3.0625 -27.125 C -0.757812 -16.851562 -2.691406 -9.820312 -2.734375 -6.03125 C 1.597656 -6.832031 6.40625 -13.578125 11.6875 -26.265625 C 12.0625 -27.140625 12.691406 -27.757812 13.578125 -28.125 C 14.460938 -28.5 15.351562 -28.5 16.25 -28.125 C 17.144531 -27.757812 17.773438 -27.128906 18.140625 -26.234375 C 18.515625 -25.347656 18.523438 -24.445312 18.171875 -23.53125 C 16.898438 -20.457031 15.671875 -17.738281 14.484375 -15.375 C 13.296875 -13.007812 11.910156 -10.644531 10.328125 -8.28125 C 8.753906 -5.914062 7.054688 -3.96875 5.234375 -2.4375 C 3.421875 -0.914062 1.515625 0.128906 -0.484375 0.703125 C -1.859375 1.066406 -3.285156 1.164062 -4.765625 1 C -6.554688 0.8125 -7.925781 -0.117188 -8.875 -1.796875 C -9.75 -3.484375 -9.898438 -6.28125 -9.328125 -10.1875 C -8.765625 -14.09375 -6.90625 -20.351562 -3.75 -28.96875 C -2.851562 -31.226562 -1.894531 -33.644531 -0.875 -36.21875 L -1.40625 -36.078125 C -2.332031 -35.828125 -3.210938 -35.9375 -4.046875 -36.40625 C -4.890625 -36.882812 -5.445312 -37.59375 -5.71875 -38.53125 C -6 -39.476562 -5.890625 -40.367188 -5.390625 -41.203125 C -4.898438 -42.035156 -4.191406 -42.578125 -3.265625 -42.828125 L 2.484375 -44.421875 C 3.972656 -47.710938 4.945312 -49.789062 5.40625 -50.65625 C 5.863281 -51.53125 6.546875 -52.109375 7.453125 -52.390625 C 8.367188 -52.679688 9.253906 -52.597656 10.109375 -52.140625 C 10.972656 -51.679688 11.539062 -50.976562 11.8125 -50.03125 C 12.09375 -49.09375 12.007812 -48.210938 11.5625 -47.390625 C 11.488281 -47.253906 11.378906 -47.0625 11.234375 -46.8125 L 12.390625 -47.125 C 13.316406 -47.363281 14.195312 -47.234375 15.03125 -46.734375 C 15.875 -46.234375 16.414062 -45.519531 16.65625 -44.59375 C 16.894531 -43.675781 16.78125 -42.800781 16.3125 -41.96875 C 15.851562 -41.132812 15.160156 -40.597656 14.234375 -40.359375 Z M 7.640625 -38.546875 "/></g></g></g><g fill="#ffffff" fill-opacity="1"><g transform="translate(460.060022, 95.156145)"><g><path d="M 17.640625 -34.6875 C 17.816406 -34.394531 17.953125 -34.109375 18.046875 -33.828125 C 18.140625 -33.554688 18.195312 -33.300781 18.21875 -33.0625 C 18.25 -32.820312 18.238281 -32.53125 18.1875 -32.1875 C 18.132812 -31.84375 18.078125 -31.546875 18.015625 -31.296875 C 17.960938 -31.046875 17.859375 -30.679688 17.703125 -30.203125 C 17.546875 -29.722656 17.40625 -29.332031 17.28125 -29.03125 C 17.15625 -28.738281 16.953125 -28.257812 16.671875 -27.59375 C 14.960938 -23.445312 14.148438 -20.816406 14.234375 -19.703125 C 14.898438 -19.191406 15.328125 -18.523438 15.515625 -17.703125 C 15.710938 -16.878906 15.617188 -16.09375 15.234375 -15.34375 C 14.796875 -14.425781 14.117188 -13.820312 13.203125 -13.53125 C 12.296875 -13.25 11.410156 -13.332031 10.546875 -13.78125 C 7.597656 -15.226562 6.585938 -18.179688 7.515625 -22.640625 C 7.660156 -23.210938 7.816406 -23.820312 7.984375 -24.46875 C 7.171875 -23.570312 6.347656 -22.5625 5.515625 -21.4375 C 1.585938 -16.457031 -2.082031 -10.523438 -5.5 -3.640625 C -5.570312 -3.492188 -5.644531 -3.335938 -5.71875 -3.171875 C -6.1875 -2.140625 -6.5625 -1.289062 -6.84375 -0.625 C -7.625 0.96875 -8.554688 1.890625 -9.640625 2.140625 C -9.992188 2.222656 -10.363281 2.253906 -10.75 2.234375 C -11.632812 2.160156 -12.382812 1.800781 -13 1.15625 C -13.613281 0.507812 -13.945312 -0.269531 -14 -1.1875 C -14.007812 -1.726562 -13.90625 -2.242188 -13.6875 -2.734375 C -13.050781 -4.023438 -12.429688 -5.335938 -11.828125 -6.671875 C -6.835938 -18.109375 -3.785156 -26.59375 -2.671875 -32.125 C -2.453125 -33.050781 -1.9375 -33.78125 -1.125 -34.3125 C -0.320312 -34.851562 0.546875 -35.03125 1.484375 -34.84375 C 2.429688 -34.65625 3.171875 -34.160156 3.703125 -33.359375 C 4.242188 -32.554688 4.410156 -31.671875 4.203125 -30.703125 L 4.21875 -30.625 C 8.320312 -34.769531 11.867188 -36.726562 14.859375 -36.5 C 16.085938 -36.34375 17.015625 -35.738281 17.640625 -34.6875 Z M 17.640625 -34.6875 "/></g></g></g><g fill="#ffffff" fill-opacity="1"><g transform="translate(485.728767, 89.165197)"><g><path d="M 29.859375 -29.78125 C 30.773438 -30.09375 31.664062 -30.03125 32.53125 -29.59375 C 33.40625 -29.164062 33.976562 -28.476562 34.25 -27.53125 C 34.53125 -26.59375 34.457031 -25.695312 34.03125 -24.84375 C 30.957031 -18.820312 26.882812 -13.566406 21.8125 -9.078125 C 16.75 -4.585938 11.773438 -1.832031 6.890625 -0.8125 C 6.742188 -0.78125 6.585938 -0.75 6.421875 -0.71875 C 1.992188 0.113281 -1.664062 -0.6875 -4.5625 -3.125 C -6.394531 -4.613281 -7.488281 -6.65625 -7.84375 -9.25 C -8.207031 -11.851562 -7.804688 -14.800781 -6.640625 -18.09375 C -4.847656 -22.914062 -1.957031 -27.144531 2.03125 -30.78125 C 6.019531 -34.414062 10.238281 -36.191406 14.6875 -36.109375 C 16.03125 -36.097656 17.210938 -35.742188 18.234375 -35.046875 C 19.253906 -34.347656 20.039062 -33.398438 20.59375 -32.203125 C 21.375 -30.359375 21.441406 -28.28125 20.796875 -25.96875 C 20.148438 -23.664062 18.910156 -21.503906 17.078125 -19.484375 C 15.191406 -17.398438 13.148438 -15.734375 10.953125 -14.484375 C 8.753906 -13.234375 6.640625 -12.578125 4.609375 -12.515625 C 2.617188 -12.472656 0.878906 -12.957031 -0.609375 -13.96875 C -1.316406 -11.144531 -1.160156 -9.316406 -0.140625 -8.484375 C 1.128906 -7.484375 2.988281 -7.238281 5.4375 -7.75 C 9.019531 -8.476562 12.941406 -10.6875 17.203125 -14.375 C 21.472656 -18.0625 25.019531 -22.617188 27.84375 -28.046875 C 28.28125 -28.898438 28.953125 -29.476562 29.859375 -29.78125 Z M 14.234375 -29.046875 C 12.179688 -29.003906 10.078125 -28.171875 7.921875 -26.546875 C 5.773438 -24.929688 3.929688 -22.894531 2.390625 -20.4375 C 2.753906 -20.25 3.09375 -20.019531 3.40625 -19.75 C 3.550781 -19.570312 3.863281 -19.492188 4.34375 -19.515625 C 5.3125 -19.585938 6.476562 -20.007812 7.84375 -20.78125 C 9.207031 -21.550781 10.554688 -22.679688 11.890625 -24.171875 C 13.535156 -26.054688 14.316406 -27.679688 14.234375 -29.046875 Z M 14.234375 -29.046875 "/></g></g></g><g fill="#ffffff" fill-opacity="1"><g transform="translate(517.391874, 83.116586)"><g><path d="M 37.578125 -28.6875 C 38.515625 -28.925781 39.398438 -28.804688 40.234375 -28.328125 C 41.078125 -27.859375 41.628906 -27.160156 41.890625 -26.234375 C 42.160156 -25.316406 42.054688 -24.421875 41.578125 -23.546875 C 40.015625 -20.867188 38.382812 -18.394531 36.6875 -16.125 C 35 -13.851562 33.351562 -11.925781 31.75 -10.34375 C 30.144531 -8.769531 28.550781 -7.398438 26.96875 -6.234375 C 25.382812 -5.078125 23.898438 -4.191406 22.515625 -3.578125 C 21.128906 -2.960938 19.832031 -2.570312 18.625 -2.40625 C 17.78125 -2.289062 17.003906 -2.289062 16.296875 -2.40625 C 14.546875 -2.632812 13.316406 -3.5625 12.609375 -5.1875 C 11.972656 -6.71875 12.007812 -8.804688 12.71875 -11.453125 C 11.820312 -10.535156 10.953125 -9.648438 10.109375 -8.796875 C 8.171875 -6.910156 6.507812 -5.375 5.125 -4.1875 C 3.738281 -3.007812 2.390625 -2.035156 1.078125 -1.265625 C -0.234375 -0.492188 -1.410156 -0.078125 -2.453125 -0.015625 C -3.492188 0.0351562 -4.457031 -0.25 -5.34375 -0.875 C -6.882812 -1.894531 -7.867188 -3.414062 -8.296875 -5.4375 C -8.734375 -7.46875 -8.597656 -9.820312 -7.890625 -12.5 C -7.234375 -15.101562 -6.125 -17.703125 -4.5625 -20.296875 C -3 -22.890625 -1.109375 -25.273438 1.109375 -27.453125 C 3.335938 -29.640625 5.9375 -31.488281 8.90625 -33 C 11.882812 -34.507812 14.988281 -35.398438 18.21875 -35.671875 C 19.75 -35.828125 21.039062 -35.390625 22.09375 -34.359375 C 22.519531 -34.054688 22.847656 -33.648438 23.078125 -33.140625 C 24.054688 -34.171875 24.738281 -34.851562 25.125 -35.1875 C 25.800781 -35.769531 26.578125 -36.050781 27.453125 -36.03125 C 28.335938 -36.007812 29.113281 -35.710938 29.78125 -35.140625 C 30.445312 -34.566406 30.828125 -33.84375 30.921875 -32.96875 C 31.015625 -32.101562 30.820312 -31.285156 30.34375 -30.515625 C 27.832031 -26.960938 25.570312 -23.226562 23.5625 -19.3125 C 21.5625 -15.394531 20.21875 -12.234375 19.53125 -9.828125 C 21.695312 -10.816406 24.191406 -12.710938 27.015625 -15.515625 C 29.847656 -18.328125 32.664062 -22.175781 35.46875 -27.0625 C 35.9375 -27.914062 36.640625 -28.457031 37.578125 -28.6875 Z M 6.796875 -15.390625 C 9.617188 -18.242188 13.1875 -22.054688 17.5 -26.828125 C 17.21875 -27.367188 17.066406 -27.910156 17.046875 -28.453125 C 13.179688 -27.710938 9.765625 -25.957031 6.796875 -23.1875 C 3.835938 -20.425781 1.617188 -17.414062 0.140625 -14.15625 C -0.972656 -11.75 -1.519531 -9.660156 -1.5 -7.890625 C 0.40625 -9.234375 3.171875 -11.734375 6.796875 -15.390625 Z M 6.796875 -15.390625 "/></g></g></g><g fill="#ffffff" fill-opacity="1"><g transform="translate(555.025786, 77.489882)"><g><path d="M 62.28125 -28.0625 C 63.226562 -28.25 64.101562 -28.078125 64.90625 -27.546875 C 65.71875 -27.023438 66.238281 -26.289062 66.46875 -25.34375 C 66.695312 -24.40625 66.546875 -23.519531 66.015625 -22.6875 C 61.867188 -16.351562 56.398438 -11.140625 49.609375 -7.046875 C 43.015625 -3.035156 38.316406 -1.785156 35.515625 -3.296875 C 34.515625 -3.816406 33.875 -4.625 33.59375 -5.71875 C 33.289062 -6.914062 33.523438 -8.316406 34.296875 -9.921875 C 35.066406 -11.523438 36.789062 -14.460938 39.46875 -18.734375 C 41.820312 -22.503906 43.492188 -25.296875 44.484375 -27.109375 C 43.359375 -26.410156 42.097656 -25.453125 40.703125 -24.234375 C 38.242188 -22.097656 34.484375 -18.332031 29.421875 -12.9375 C 25.265625 -8.5 22.175781 -5.414062 20.15625 -3.6875 C 18.144531 -1.957031 16.296875 -1.035156 14.609375 -0.921875 C 14.078125 -0.878906 13.539062 -0.945312 13 -1.125 C 11.59375 -1.457031 10.601562 -2.296875 10.03125 -3.640625 C 9.457031 -5.191406 9.671875 -7.144531 10.671875 -9.5 C 11.679688 -11.851562 13.882812 -15.804688 17.28125 -21.359375 C 18.039062 -22.640625 18.59375 -23.554688 18.9375 -24.109375 C 17.039062 -22.816406 14.921875 -21.148438 12.578125 -19.109375 C 7.648438 -14.898438 1.539062 -8.957031 -5.75 -1.28125 C -6.34375 -0.65625 -7.0625 -0.300781 -7.90625 -0.21875 C -8.757812 -0.132812 -9.546875 -0.332031 -10.265625 -0.8125 C -10.984375 -1.300781 -11.453125 -1.945312 -11.671875 -2.75 C -11.890625 -3.5625 -11.835938 -4.347656 -11.515625 -5.109375 C -10.128906 -8.179688 -7.847656 -12.5625 -4.671875 -18.25 C -1.492188 -23.945312 1.550781 -28.757812 4.46875 -32.6875 C 5.0625 -33.414062 5.828125 -33.851562 6.765625 -34 C 7.710938 -34.144531 8.578125 -33.921875 9.359375 -33.328125 C 10.148438 -32.742188 10.617188 -31.976562 10.765625 -31.03125 C 10.910156 -30.09375 10.6875 -29.226562 10.09375 -28.4375 C 8.925781 -26.875 7.671875 -25.0625 6.328125 -23 C 14.804688 -30.488281 21.144531 -34.242188 25.34375 -34.265625 C 26.882812 -34.265625 28.039062 -33.601562 28.8125 -32.28125 C 29.539062 -31 29.539062 -29.46875 28.8125 -27.6875 C 28.082031 -25.914062 26.234375 -22.613281 23.265625 -17.78125 C 22.460938 -16.457031 21.84375 -15.425781 21.40625 -14.6875 C 22.101562 -15.382812 23.070312 -16.414062 24.3125 -17.78125 C 26.195312 -19.757812 27.632812 -21.273438 28.625 -22.328125 C 29.613281 -23.378906 30.976562 -24.75 32.71875 -26.4375 C 34.46875 -28.125 35.925781 -29.421875 37.09375 -30.328125 C 38.257812 -31.234375 39.578125 -32.171875 41.046875 -33.140625 C 42.515625 -34.117188 43.890625 -34.8125 45.171875 -35.21875 C 46.453125 -35.625 47.675781 -35.789062 48.84375 -35.71875 C 50.664062 -35.570312 51.945312 -34.757812 52.6875 -33.28125 C 52.988281 -32.71875 53.175781 -32.128906 53.25 -31.515625 C 53.320312 -30.898438 53.253906 -30.171875 53.046875 -29.328125 C 52.835938 -28.492188 52.546875 -27.65625 52.171875 -26.8125 C 51.796875 -25.96875 51.253906 -24.890625 50.546875 -23.578125 C 49.835938 -22.273438 49.101562 -20.988281 48.34375 -19.71875 C 47.582031 -18.445312 46.597656 -16.867188 45.390625 -14.984375 C 44.429688 -13.429688 43.710938 -12.289062 43.234375 -11.5625 C 46.117188 -12.976562 49.082031 -14.957031 52.125 -17.5 C 55.164062 -20.050781 57.820312 -23.054688 60.09375 -26.515625 C 60.613281 -27.359375 61.34375 -27.875 62.28125 -28.0625 Z M 62.28125 -28.0625 "/></g></g></g><g fill="#ffffff" fill-opacity="1"><g transform="translate(616.305621, 73.87682)"><g><path d="M 19.96875 -24.03125 C 20.914062 -24.175781 21.78125 -23.960938 22.5625 -23.390625 C 23.34375 -22.816406 23.789062 -22.039062 23.90625 -21.0625 C 24.019531 -20.082031 23.789062 -19.210938 23.21875 -18.453125 C 21.820312 -16.578125 20.679688 -15.078125 19.796875 -13.953125 C 18.910156 -12.828125 17.523438 -11.242188 15.640625 -9.203125 C 13.753906 -7.160156 12.035156 -5.53125 10.484375 -4.3125 C 8.929688 -3.101562 7.125 -2.003906 5.0625 -1.015625 C 3.007812 -0.0351562 1.03125 0.46875 -0.875 0.5 C -2.257812 0.519531 -3.613281 0.296875 -4.9375 -0.171875 C -6.644531 -0.785156 -7.75 -2.019531 -8.25 -3.875 C -8.695312 -5.71875 -8.175781 -8.46875 -6.6875 -12.125 C -5.195312 -15.78125 -1.878906 -21.410156 3.265625 -29.015625 C 5.972656 -32.929688 8.800781 -36.828125 11.75 -40.703125 C 14.695312 -44.585938 16.5625 -46.988281 17.34375 -47.90625 C 18.019531 -48.601562 18.832031 -48.984375 19.78125 -49.046875 C 20.738281 -49.117188 21.582031 -48.828125 22.3125 -48.171875 C 23.039062 -47.523438 23.421875 -46.707031 23.453125 -45.71875 C 23.492188 -44.738281 23.203125 -43.898438 22.578125 -43.203125 C 22.210938 -42.816406 21.414062 -41.832031 20.1875 -40.25 C 18.96875 -38.675781 17.328125 -36.492188 15.265625 -33.703125 C 13.210938 -30.921875 11.269531 -28.21875 9.4375 -25.59375 C 3.25 -16.539062 -0.320312 -10.179688 -1.28125 -6.515625 C 3.070312 -6.304688 9.367188 -11.691406 17.609375 -22.671875 C 18.234375 -23.429688 19.019531 -23.882812 19.96875 -24.03125 Z M 19.96875 -24.03125 "/></g></g></g><g fill="#ffffff" fill-opacity="1"><g transform="translate(634.550681, 73.62546)"><g><path d="M 20.71875 -23.515625 C 21.675781 -23.640625 22.550781 -23.414062 23.34375 -22.84375 C 24.132812 -22.28125 24.59375 -21.519531 24.71875 -20.5625 C 24.84375 -19.601562 24.632812 -18.726562 24.09375 -17.9375 C 14.875 -5.570312 6.679688 0.566406 -0.484375 0.484375 C -1.910156 0.460938 -3.285156 0.207031 -4.609375 -0.28125 C -6.617188 -1.0625 -7.878906 -2.457031 -8.390625 -4.46875 C -9.046875 -7.082031 -8.195312 -10.335938 -5.84375 -14.234375 C -3.488281 -18.128906 0.375 -23.175781 5.75 -29.375 C 6.507812 -30.269531 6.992188 -30.847656 7.203125 -31.109375 C 7.847656 -31.847656 8.648438 -32.265625 9.609375 -32.359375 C 10.566406 -32.453125 11.410156 -32.1875 12.140625 -31.5625 C 12.878906 -30.945312 13.296875 -30.148438 13.390625 -29.171875 C 13.484375 -28.191406 13.234375 -27.332031 12.640625 -26.59375 C 12.429688 -26.332031 11.925781 -25.726562 11.125 -24.78125 C 7.40625 -20.53125 4.601562 -17.085938 2.71875 -14.453125 C 0.238281 -10.929688 -1.171875 -8.347656 -1.515625 -6.703125 C 0.753906 -6.148438 3.644531 -7.234375 7.15625 -9.953125 C 10.664062 -12.671875 14.414062 -16.734375 18.40625 -22.140625 C 19 -22.941406 19.769531 -23.398438 20.71875 -23.515625 Z M 13.53125 -33.984375 C 11.53125 -35.546875 11.609375 -37.691406 13.765625 -40.421875 C 14.140625 -40.953125 14.546875 -41.375 14.984375 -41.6875 C 15.828125 -42.46875 16.738281 -42.863281 17.71875 -42.875 C 18.707031 -42.894531 19.441406 -42.632812 19.921875 -42.09375 C 21.910156 -40.539062 21.828125 -38.398438 19.671875 -35.671875 C 19.296875 -35.140625 18.894531 -34.710938 18.46875 -34.390625 C 17.613281 -33.609375 16.679688 -33.222656 15.671875 -33.234375 C 14.867188 -33.242188 14.15625 -33.492188 13.53125 -33.984375 Z M 13.53125 -33.984375 "/></g></g></g><g fill="#ffffff" fill-opacity="1"><g transform="translate(652.447793, 73.633953)"><g><path d="M 40.65625 -21.78125 C 41.644531 -21.84375 42.492188 -21.550781 43.203125 -20.90625 C 43.910156 -20.257812 44.296875 -19.457031 44.359375 -18.5 C 44.421875 -17.539062 44.140625 -16.679688 43.515625 -15.921875 C 38.660156 -10.410156 32.671875 -5.984375 25.546875 -2.640625 C 18.421875 0.679688 13.578125 1.453125 11.015625 -0.328125 C 10.085938 -0.953125 9.546875 -1.851562 9.390625 -3.03125 C 9.234375 -4.269531 9.703125 -5.679688 10.796875 -7.265625 C 11.890625 -8.859375 14.351562 -11.847656 18.1875 -16.234375 C 20.832031 -19.222656 22.75 -21.457031 23.9375 -22.9375 C 19.300781 -21.46875 14.023438 -18.71875 8.109375 -14.6875 C 2.191406 -10.65625 -3.109375 -6.285156 -7.796875 -1.578125 C -8.535156 -0.828125 -9.429688 -0.476562 -10.484375 -0.53125 C -11.285156 -0.5625 -11.988281 -0.859375 -12.59375 -1.421875 C -13.3125 -2.046875 -13.710938 -2.8125 -13.796875 -3.71875 C -13.890625 -4.625 -13.648438 -5.4375 -13.078125 -6.15625 C -8.078125 -12.695312 -0.816406 -21.4375 8.703125 -32.375 C 9.316406 -33.101562 10.109375 -33.503906 11.078125 -33.578125 C 12.046875 -33.660156 12.894531 -33.378906 13.625 -32.734375 C 14.363281 -32.085938 14.773438 -31.285156 14.859375 -30.328125 C 14.953125 -29.378906 14.660156 -28.546875 13.984375 -27.828125 C 13.523438 -27.265625 12.757812 -26.375 11.6875 -25.15625 C 18.675781 -28.988281 24.59375 -30.921875 29.4375 -30.953125 C 31.40625 -30.953125 32.738281 -30.144531 33.4375 -28.53125 C 34.21875 -26.894531 33.929688 -25.007812 32.578125 -22.875 C 31.222656 -20.738281 28.179688 -16.972656 23.453125 -11.578125 C 22.085938 -10.046875 21.039062 -8.847656 20.3125 -7.984375 C 23.289062 -9.210938 26.382812 -10.890625 29.59375 -13.015625 C 32.8125 -15.148438 35.691406 -17.660156 38.234375 -20.546875 C 38.859375 -21.316406 39.664062 -21.726562 40.65625 -21.78125 Z M 40.65625 -21.78125 "/></g></g></g><g fill="#ffffff" fill-opacity="1"><g transform="translate(689.583622, 75.527948)"><g><path d="M 37.015625 -20.234375 C 37.972656 -20.273438 38.804688 -19.960938 39.515625 -19.296875 C 40.222656 -18.640625 40.582031 -17.816406 40.59375 -16.828125 C 40.601562 -15.847656 40.28125 -15.015625 39.625 -14.328125 C 34.976562 -9.410156 29.597656 -5.503906 23.484375 -2.609375 C 17.367188 0.273438 11.820312 1.53125 6.84375 1.15625 C 6.6875 1.144531 6.523438 1.128906 6.359375 1.109375 C 1.878906 0.671875 -1.410156 -1.117188 -3.515625 -4.265625 C -4.859375 -6.210938 -5.332031 -8.484375 -4.9375 -11.078125 C -4.550781 -13.679688 -3.34375 -16.398438 -1.3125 -19.234375 C 1.769531 -23.359375 5.734375 -26.609375 10.578125 -28.984375 C 15.421875 -31.359375 19.960938 -31.882812 24.203125 -30.5625 C 25.492188 -30.164062 26.53125 -29.488281 27.3125 -28.53125 C 28.101562 -27.582031 28.597656 -26.457031 28.796875 -25.15625 C 29.015625 -23.15625 28.492188 -21.140625 27.234375 -19.109375 C 25.972656 -17.078125 24.175781 -15.347656 21.84375 -13.921875 C 19.457031 -12.453125 17.035156 -11.425781 14.578125 -10.84375 C 12.117188 -10.257812 9.90625 -10.21875 7.9375 -10.71875 C 6.007812 -11.238281 4.472656 -12.195312 3.328125 -13.59375 C 1.859375 -11.070312 1.5 -9.265625 2.25 -8.171875 C 3.175781 -6.859375 4.882812 -6.109375 7.375 -5.921875 C 11.019531 -5.609375 15.410156 -6.625 20.546875 -8.96875 C 25.679688 -11.320312 30.363281 -14.710938 34.59375 -19.140625 C 35.25 -19.835938 36.054688 -20.203125 37.015625 -20.234375 Z M 21.796875 -23.921875 C 19.816406 -24.441406 17.566406 -24.222656 15.046875 -23.265625 C 12.523438 -22.316406 10.179688 -20.882812 8.015625 -18.96875 C 8.316406 -18.675781 8.582031 -18.351562 8.8125 -18 C 8.894531 -17.78125 9.171875 -17.617188 9.640625 -17.515625 C 10.578125 -17.316406 11.8125 -17.394531 13.34375 -17.75 C 14.875 -18.113281 16.488281 -18.820312 18.1875 -19.875 C 20.289062 -21.21875 21.492188 -22.566406 21.796875 -23.921875 Z M 21.796875 -23.921875 "/></g></g></g><g fill="#000000" fill-opacity="1"><g transform="translate(721.806424, 78.724996)"><g/></g></g><g clip-path="url(#c7b843e71a)"><g clip-path="url(#ce2027c001)"><g clip-path="url(#326a51eb37)"><path fill="#ffffff" d="M 817.507812 144.574219 C 816.1875 144.523438 814.871094 144.476562 813.605469 144.296875 C 813.398438 144.277344 813.203125 144.21875 813.015625 144.125 C 812.832031 144.027344 812.671875 143.902344 812.535156 143.746094 C 812.398438 143.589844 812.296875 143.414062 812.226562 143.21875 C 812.15625 143.019531 812.128906 142.820312 812.136719 142.613281 C 812.136719 142.613281 812.136719 142.53125 812.140625 142.480469 C 812.164062 142.265625 812.226562 142.066406 812.328125 141.875 C 812.429688 141.6875 812.566406 141.523438 812.730469 141.390625 C 812.898438 141.253906 813.085938 141.152344 813.292969 141.09375 C 813.5 141.03125 813.707031 141.011719 813.921875 141.03125 C 817.082031 141.355469 820.25 141.421875 823.421875 141.238281 C 823.632812 141.226562 823.84375 141.253906 824.046875 141.324219 C 824.25 141.394531 824.429688 141.5 824.59375 141.644531 C 824.753906 141.785156 824.882812 141.953125 824.976562 142.144531 C 825.070312 142.335938 825.125 142.539062 825.140625 142.753906 C 825.148438 142.816406 825.144531 142.875 825.132812 142.933594 C 825.128906 143.136719 825.085938 143.332031 825.003906 143.519531 C 824.921875 143.707031 824.8125 143.875 824.667969 144.019531 C 824.527344 144.167969 824.363281 144.28125 824.175781 144.363281 C 823.992188 144.449219 823.796875 144.496094 823.59375 144.507812 C 821.566406 144.628906 819.511719 144.648438 817.507812 144.574219 Z M 804.136719 142.445312 L 803.710938 142.425781 C 800.460938 141.398438 797.382812 139.992188 794.476562 138.203125 C 794.21875 138.046875 794.019531 137.835938 793.875 137.570312 C 793.734375 137.304688 793.671875 137.023438 793.6875 136.722656 C 793.707031 136.449219 793.785156 136.199219 793.925781 135.964844 C 794.03125 135.789062 794.164062 135.640625 794.324219 135.515625 C 794.488281 135.390625 794.664062 135.300781 794.859375 135.242188 C 795.054688 135.183594 795.253906 135.164062 795.457031 135.183594 C 795.660156 135.199219 795.851562 135.253906 796.035156 135.34375 L 796.167969 135.347656 C 798.839844 136.929688 801.664062 138.175781 804.636719 139.085938 C 804.996094 139.199219 805.285156 139.410156 805.5 139.722656 C 805.714844 140.035156 805.808594 140.382812 805.78125 140.761719 C 805.773438 140.976562 805.722656 141.183594 805.632812 141.378906 C 805.542969 141.574219 805.417969 141.746094 805.261719 141.894531 C 805.101562 142.039062 804.921875 142.152344 804.71875 142.226562 C 804.515625 142.300781 804.308594 142.335938 804.089844 142.328125 Z M 833.15625 143.332031 C 832.769531 143.328125 832.425781 143.199219 832.128906 142.949219 C 831.832031 142.699219 831.648438 142.382812 831.578125 142 C 831.566406 141.878906 831.570312 141.761719 831.589844 141.640625 C 831.59375 141.257812 831.71875 140.914062 831.964844 140.617188 C 832.214844 140.320312 832.527344 140.136719 832.90625 140.0625 C 836.042969 139.445312 839.125 138.628906 842.160156 137.617188 C 842.367188 137.550781 842.578125 137.523438 842.796875 137.542969 C 843.011719 137.558594 843.21875 137.617188 843.410156 137.714844 C 843.605469 137.8125 843.773438 137.945312 843.914062 138.113281 C 844.054688 138.28125 844.15625 138.464844 844.222656 138.675781 C 844.28125 138.855469 844.308594 139.039062 844.300781 139.230469 C 844.289062 139.570312 844.179688 139.878906 843.976562 140.152344 C 843.773438 140.425781 843.507812 140.613281 843.183594 140.722656 C 840.019531 141.765625 836.804688 142.605469 833.535156 143.246094 C 833.410156 143.269531 833.285156 143.277344 833.160156 143.265625 Z M 851.730469 137.191406 C 851.421875 137.183594 851.136719 137.09375 850.878906 136.921875 C 850.621094 136.75 850.425781 136.523438 850.296875 136.242188 C 850.191406 136.003906 850.140625 135.75 850.148438 135.488281 C 850.164062 135.183594 850.257812 134.902344 850.433594 134.652344 C 850.605469 134.402344 850.832031 134.210938 851.113281 134.089844 C 854 132.777344 856.859375 131.304688 859.65625 129.679688 C 859.84375 129.570312 860.046875 129.503906 860.261719 129.476562 C 860.476562 129.449219 860.6875 129.460938 860.898438 129.519531 C 861.105469 129.574219 861.296875 129.671875 861.46875 129.804688 C 861.640625 129.9375 861.777344 130.097656 861.886719 130.285156 C 861.992188 130.472656 862.054688 130.671875 862.082031 130.882812 C 862.109375 131.097656 862.09375 131.308594 862.039062 131.515625 C 861.980469 131.722656 861.886719 131.910156 861.757812 132.078125 C 861.625 132.25 861.464844 132.386719 861.28125 132.496094 C 858.382812 134.179688 855.40625 135.714844 852.453125 137.058594 C 852.222656 137.160156 851.980469 137.203125 851.730469 137.191406 Z M 787.707031 132.195312 C 787.246094 132.175781 786.859375 131.992188 786.554688 131.644531 C 784.289062 129.089844 782.359375 126.300781 780.769531 123.277344 C 780.636719 123.019531 780.574219 122.746094 780.585938 122.453125 C 780.59375 122.164062 780.675781 121.894531 780.828125 121.648438 C 780.980469 121.398438 781.183594 121.207031 781.4375 121.066406 C 781.628906 120.964844 781.832031 120.902344 782.046875 120.878906 C 782.261719 120.855469 782.472656 120.875 782.679688 120.9375 C 782.886719 121 783.074219 121.097656 783.242188 121.234375 C 783.410156 121.367188 783.542969 121.53125 783.648438 121.722656 C 785.113281 124.46875 786.875 127.007812 788.941406 129.335938 L 789.015625 129.4375 C 789.300781 129.765625 789.433594 130.144531 789.414062 130.578125 C 789.394531 131.03125 789.21875 131.410156 788.882812 131.714844 C 788.566406 132.0625 788.175781 132.234375 787.707031 132.242188 Z M 868.613281 127.421875 C 868.394531 127.414062 868.191406 127.363281 867.992188 127.273438 C 867.796875 127.183594 867.625 127.058594 867.476562 126.902344 C 867.332031 126.742188 867.21875 126.5625 867.144531 126.359375 C 867.070312 126.15625 867.035156 125.949219 867.042969 125.730469 C 867.070312 125.207031 867.296875 124.789062 867.726562 124.484375 C 870.304688 122.65625 872.859375 120.648438 875.320312 118.539062 C 875.484375 118.402344 875.667969 118.296875 875.871094 118.234375 C 876.078125 118.167969 876.289062 118.140625 876.503906 118.160156 C 876.71875 118.175781 876.921875 118.234375 877.113281 118.332031 C 877.304688 118.429688 877.472656 118.558594 877.609375 118.722656 C 877.878906 119.042969 878.007812 119.414062 877.992188 119.832031 C 877.980469 120.308594 877.789062 120.703125 877.425781 121.015625 C 874.882812 123.203125 872.246094 125.257812 869.617188 127.132812 C 869.324219 127.367188 868.988281 127.480469 868.609375 127.46875 Z M 464.511719 110.734375 C 464.320312 110.730469 464.132812 110.691406 463.953125 110.621094 C 463.773438 110.554688 463.613281 110.453125 463.46875 110.324219 C 463.324219 110.199219 463.207031 110.050781 463.113281 109.878906 C 463.023438 109.710938 462.960938 109.53125 462.933594 109.339844 C 462.929688 109.242188 462.933594 109.144531 462.945312 109.046875 C 462.949219 108.851562 462.988281 108.667969 463.058594 108.488281 C 463.128906 108.308594 463.226562 108.144531 463.355469 108 C 463.480469 107.855469 463.632812 107.738281 463.800781 107.644531 C 463.96875 107.554688 464.152344 107.496094 464.34375 107.46875 L 474.015625 106.066406 C 474.226562 106.039062 474.441406 106.050781 474.648438 106.105469 C 474.859375 106.15625 475.050781 106.25 475.222656 106.378906 C 475.394531 106.511719 475.535156 106.667969 475.644531 106.855469 C 475.753906 107.042969 475.824219 107.242188 475.855469 107.457031 C 475.859375 107.554688 475.855469 107.652344 475.84375 107.75 C 475.835938 108.136719 475.710938 108.480469 475.460938 108.777344 C 475.210938 109.074219 474.894531 109.257812 474.511719 109.332031 L 474.347656 109.324219 L 464.808594 110.710938 C 464.710938 110.734375 464.613281 110.742188 464.511719 110.734375 Z M 791.390625 120.039062 C 791.175781 120.03125 790.96875 119.980469 790.773438 119.890625 C 790.574219 119.800781 790.402344 119.675781 790.257812 119.519531 C 790.109375 119.359375 790 119.179688 789.921875 118.976562 C 789.847656 118.773438 789.816406 118.5625 789.824219 118.347656 C 789.835938 117.898438 790.007812 117.519531 790.339844 117.210938 C 790.664062 116.902344 791.050781 116.753906 791.496094 116.765625 C 794.625 116.863281 797.738281 116.664062 800.828125 116.167969 L 801.023438 116.175781 C 801.230469 116.152344 801.433594 116.171875 801.632812 116.226562 C 801.832031 116.28125 802.015625 116.375 802.179688 116.5 C 802.34375 116.625 802.480469 116.777344 802.589844 116.953125 C 802.695312 117.132812 802.765625 117.324219 802.800781 117.527344 C 802.804688 117.636719 802.796875 117.746094 802.789062 117.855469 C 802.785156 118.238281 802.660156 118.578125 802.417969 118.875 C 802.175781 119.171875 801.863281 119.359375 801.488281 119.4375 L 801.328125 119.429688 C 798.027344 119.960938 794.710938 120.164062 791.375 120.035156 Z M 483.855469 107.984375 C 483.664062 107.980469 483.476562 107.941406 483.296875 107.871094 C 483.117188 107.800781 482.957031 107.703125 482.8125 107.574219 C 482.667969 107.449219 482.546875 107.296875 482.457031 107.128906 C 482.363281 106.960938 482.304688 106.777344 482.277344 106.585938 C 482.273438 106.488281 482.277344 106.390625 482.289062 106.292969 C 482.292969 106.101562 482.328125 105.914062 482.398438 105.734375 C 482.46875 105.554688 482.570312 105.394531 482.695312 105.25 C 482.824219 105.105469 482.972656 104.988281 483.144531 104.894531 C 483.3125 104.804688 483.492188 104.742188 483.683594 104.714844 C 486.816406 104.277344 490.160156 103.816406 493.367188 103.449219 C 493.582031 103.417969 493.792969 103.429688 494.003906 103.484375 C 494.210938 103.539062 494.402344 103.628906 494.574219 103.761719 C 494.75 103.890625 494.890625 104.050781 495 104.234375 C 495.109375 104.421875 495.179688 104.621094 495.207031 104.835938 C 495.210938 104.933594 495.207031 105.03125 495.195312 105.128906 C 495.191406 105.324219 495.15625 105.507812 495.085938 105.6875 C 495.015625 105.867188 494.914062 106.03125 494.789062 106.175781 C 494.660156 106.320312 494.511719 106.4375 494.339844 106.53125 C 494.171875 106.621094 493.992188 106.679688 493.800781 106.707031 L 484.183594 107.980469 Z M 781.664062 118.925781 L 781.40625 118.914062 C 778.167969 118.285156 774.988281 117.445312 771.863281 116.390625 L 771.75 116.386719 C 771.394531 116.269531 771.113281 116.054688 770.90625 115.742188 C 770.699219 115.429688 770.609375 115.085938 770.636719 114.714844 C 770.617188 114.566406 770.625 114.417969 770.652344 114.273438 C 770.722656 114.070312 770.828125 113.886719 770.972656 113.726562 C 771.113281 113.566406 771.28125 113.4375 771.472656 113.339844 C 771.667969 113.246094 771.871094 113.191406 772.085938 113.175781 C 772.300781 113.164062 772.507812 113.191406 772.714844 113.257812 C 774.148438 113.71875 775.582031 114.148438 776.96875 114.527344 C 776.886719 114.390625 776.824219 114.246094 776.773438 114.09375 C 775.761719 110.90625 775.019531 107.65625 774.546875 104.34375 C 774.542969 104.246094 774.546875 104.148438 774.558594 104.050781 C 774.566406 103.652344 774.699219 103.308594 774.960938 103.007812 C 775.21875 102.710938 775.546875 102.53125 775.9375 102.472656 C 776.152344 102.4375 776.363281 102.449219 776.574219 102.5 C 776.785156 102.550781 776.976562 102.644531 777.152344 102.773438 C 777.324219 102.902344 777.46875 103.058594 777.578125 103.242188 C 777.691406 103.429688 777.761719 103.628906 777.792969 103.84375 C 778.257812 106.996094 778.972656 110.085938 779.941406 113.121094 C 780.003906 113.296875 780.027344 113.476562 780.019531 113.660156 C 780.007812 113.957031 779.917969 114.230469 779.757812 114.476562 C 779.597656 114.722656 779.382812 114.914062 779.121094 115.046875 C 780.121094 115.296875 781.089844 115.511719 782.03125 115.675781 C 782.222656 115.714844 782.402344 115.785156 782.566406 115.890625 C 782.734375 115.992188 782.875 116.121094 782.996094 116.273438 C 783.117188 116.429688 783.207031 116.597656 783.265625 116.785156 C 783.324219 116.96875 783.347656 117.160156 783.335938 117.355469 C 783.34375 117.445312 783.339844 117.53125 783.328125 117.617188 C 783.289062 117.808594 783.21875 117.984375 783.117188 118.148438 C 783.015625 118.316406 782.890625 118.457031 782.738281 118.578125 C 782.585938 118.695312 782.417969 118.785156 782.230469 118.847656 C 782.046875 118.90625 781.859375 118.933594 781.664062 118.925781 Z M 503.242188 105.382812 C 503.046875 105.378906 502.859375 105.339844 502.679688 105.269531 C 502.5 105.195312 502.335938 105.097656 502.191406 104.964844 C 502.046875 104.835938 501.929688 104.6875 501.839844 104.515625 C 501.75 104.34375 501.691406 104.160156 501.664062 103.96875 C 501.660156 103.871094 501.664062 103.773438 501.675781 103.675781 C 501.679688 103.480469 501.71875 103.292969 501.789062 103.113281 C 501.859375 102.933594 501.960938 102.769531 502.089844 102.625 C 502.21875 102.480469 502.371094 102.363281 502.542969 102.273438 C 502.714844 102.183594 502.894531 102.125 503.085938 102.097656 L 512.789062 100.828125 C 513.003906 100.804688 513.214844 100.816406 513.421875 100.875 C 513.632812 100.933594 513.824219 101.027344 513.992188 101.160156 C 514.164062 101.296875 514.304688 101.457031 514.410156 101.644531 C 514.515625 101.835938 514.582031 102.035156 514.609375 102.25 C 514.613281 102.332031 514.609375 102.414062 514.601562 102.496094 C 514.59375 102.691406 514.558594 102.878906 514.484375 103.058594 C 514.410156 103.242188 514.308594 103.40625 514.179688 103.550781 C 514.046875 103.695312 513.894531 103.8125 513.722656 103.902344 C 513.550781 103.992188 513.367188 104.046875 513.171875 104.074219 L 503.488281 105.339844 Z M 810.503906 116.855469 C 810.175781 116.839844 809.878906 116.738281 809.613281 116.542969 C 809.347656 116.347656 809.15625 116.097656 809.042969 115.789062 C 808.96875 115.585938 808.933594 115.378906 808.9375 115.164062 C 808.945312 114.84375 809.039062 114.550781 809.222656 114.285156 C 809.402344 114.019531 809.640625 113.828125 809.9375 113.703125 L 810.019531 113.707031 C 812.953125 112.605469 815.722656 111.1875 818.328125 109.449219 C 818.507812 109.328125 818.707031 109.246094 818.917969 109.203125 C 819.132812 109.160156 819.34375 109.15625 819.558594 109.199219 C 819.769531 109.238281 819.96875 109.320312 820.148438 109.4375 C 820.328125 109.558594 820.480469 109.707031 820.601562 109.886719 C 820.722656 110.066406 820.808594 110.261719 820.851562 110.476562 C 820.894531 110.6875 820.898438 110.902344 820.855469 111.113281 C 820.816406 111.328125 820.734375 111.523438 820.617188 111.707031 C 820.496094 111.886719 820.347656 112.039062 820.167969 112.160156 C 817.335938 114.023438 814.328125 115.542969 811.144531 116.714844 C 810.9375 116.78125 810.726562 116.808594 810.507812 116.789062 Z M 763.105469 112.898438 C 762.894531 112.894531 762.6875 112.847656 762.492188 112.761719 C 759.574219 111.429688 756.679688 109.953125 753.660156 108.242188 C 753.40625 108.085938 753.210938 107.878906 753.070312 107.617188 C 752.933594 107.355469 752.871094 107.074219 752.882812 106.777344 C 752.894531 106.519531 752.964844 106.277344 753.089844 106.050781 C 753.191406 105.875 753.320312 105.71875 753.480469 105.589844 C 753.640625 105.460938 753.820312 105.363281 754.015625 105.300781 C 754.210938 105.242188 754.410156 105.214844 754.617188 105.230469 C 754.820312 105.242188 755.015625 105.292969 755.203125 105.382812 L 755.316406 105.386719 L 755.398438 105.390625 C 758.335938 107.046875 761.121094 108.472656 763.894531 109.75 C 764.1875 109.882812 764.421875 110.085938 764.59375 110.359375 C 764.765625 110.632812 764.851562 110.929688 764.847656 111.253906 C 764.839844 111.46875 764.789062 111.675781 764.699219 111.871094 C 764.609375 112.066406 764.484375 112.238281 764.328125 112.386719 C 764.167969 112.53125 763.988281 112.644531 763.785156 112.71875 C 763.582031 112.792969 763.375 112.828125 763.160156 112.820312 Z M 522.636719 102.941406 C 522.441406 102.9375 522.253906 102.898438 522.074219 102.828125 C 521.890625 102.753906 521.730469 102.652344 521.585938 102.519531 C 521.4375 102.390625 521.320312 102.238281 521.230469 102.066406 C 521.140625 101.890625 521.085938 101.707031 521.0625 101.515625 C 521.054688 101.425781 521.058594 101.339844 521.070312 101.253906 C 521.074219 101.058594 521.113281 100.871094 521.1875 100.6875 C 521.257812 100.507812 521.359375 100.34375 521.492188 100.199219 C 521.621094 100.054688 521.773438 99.9375 521.949219 99.847656 C 522.121094 99.757812 522.304688 99.699219 522.5 99.675781 L 532.210938 98.523438 C 532.425781 98.496094 532.636719 98.515625 532.84375 98.574219 C 533.050781 98.632812 533.238281 98.726562 533.40625 98.859375 C 533.574219 98.992188 533.714844 99.152344 533.820312 99.339844 C 533.925781 99.527344 533.992188 99.730469 534.015625 99.941406 C 534.023438 100.023438 534.019531 100.105469 534.007812 100.1875 C 534.003906 100.382812 533.964844 100.570312 533.890625 100.753906 C 533.820312 100.933594 533.71875 101.097656 533.585938 101.242188 C 533.457031 101.386719 533.304688 101.503906 533.128906 101.59375 C 532.957031 101.683594 532.773438 101.742188 532.578125 101.765625 C 529.023438 102.203125 525.863281 102.558594 522.882812 102.933594 Z M 542.0625 100.667969 C 541.863281 100.664062 541.675781 100.625 541.492188 100.550781 C 541.3125 100.476562 541.148438 100.371094 541.003906 100.238281 C 540.855469 100.105469 540.742188 99.953125 540.652344 99.777344 C 540.5625 99.601562 540.507812 99.417969 540.484375 99.222656 C 540.480469 99.140625 540.480469 99.058594 540.492188 98.980469 C 540.5 98.78125 540.539062 98.59375 540.609375 98.410156 C 540.683594 98.226562 540.789062 98.066406 540.921875 97.921875 C 541.054688 97.773438 541.207031 97.660156 541.382812 97.570312 C 541.558594 97.480469 541.742188 97.425781 541.9375 97.402344 L 551.664062 96.347656 C 551.878906 96.324219 552.089844 96.34375 552.296875 96.40625 C 552.503906 96.46875 552.691406 96.566406 552.859375 96.703125 C 553.023438 96.839844 553.160156 97.003906 553.261719 97.191406 C 553.367188 97.382812 553.429688 97.585938 553.449219 97.800781 C 553.457031 97.875 553.453125 97.953125 553.441406 98.027344 C 553.4375 98.222656 553.398438 98.414062 553.324219 98.59375 C 553.25 98.777344 553.148438 98.941406 553.015625 99.085938 C 552.882812 99.230469 552.726562 99.347656 552.554688 99.4375 C 552.378906 99.527344 552.191406 99.582031 551.996094 99.605469 C 548.378906 99.972656 545.203125 100.328125 542.273438 100.660156 Z M 561.492188 98.636719 C 561.292969 98.632812 561.101562 98.59375 560.917969 98.515625 C 560.738281 98.441406 560.574219 98.339844 560.425781 98.203125 C 560.28125 98.070312 560.164062 97.914062 560.078125 97.738281 C 559.988281 97.558594 559.933594 97.375 559.914062 97.175781 C 559.914062 97.175781 559.917969 97.046875 559.921875 96.980469 C 559.925781 96.785156 559.96875 96.59375 560.042969 96.410156 C 560.117188 96.226562 560.222656 96.0625 560.355469 95.917969 C 560.488281 95.773438 560.644531 95.65625 560.824219 95.566406 C 561 95.480469 561.1875 95.425781 561.382812 95.40625 C 564.65625 95.070312 567.929688 94.753906 571.199219 94.46875 C 571.417969 94.445312 571.628906 94.464844 571.835938 94.527344 C 572.046875 94.589844 572.234375 94.691406 572.402344 94.828125 C 572.570312 94.96875 572.703125 95.132812 572.804688 95.324219 C 572.90625 95.515625 572.96875 95.71875 572.988281 95.9375 L 572.980469 96.132812 C 572.976562 96.328125 572.9375 96.519531 572.859375 96.703125 C 572.785156 96.886719 572.683594 97.050781 572.546875 97.195312 C 572.414062 97.339844 572.257812 97.457031 572.082031 97.542969 C 571.902344 97.632812 571.714844 97.6875 571.519531 97.707031 L 561.816406 98.648438 Z M 745.734375 103.886719 C 745.578125 103.902344 745.421875 103.898438 745.265625 103.867188 L 745.070312 103.863281 C 742.152344 102.621094 739.175781 101.546875 736.140625 100.640625 C 735.777344 100.53125 735.488281 100.316406 735.277344 100.003906 C 735.0625 99.691406 734.96875 99.347656 734.996094 98.96875 C 734.984375 98.832031 734.988281 98.695312 735.011719 98.5625 C 735.074219 98.355469 735.175781 98.167969 735.3125 98.003906 C 735.449219 97.835938 735.613281 97.703125 735.800781 97.601562 C 735.992188 97.5 736.195312 97.4375 736.410156 97.417969 C 736.625 97.398438 736.832031 97.417969 737.039062 97.480469 C 740.207031 98.355469 743.316406 99.414062 746.363281 100.648438 L 746.507812 100.65625 C 746.800781 100.796875 747.03125 101.003906 747.199219 101.285156 C 747.367188 101.5625 747.441406 101.863281 747.429688 102.1875 C 747.425781 102.390625 747.378906 102.585938 747.292969 102.769531 C 747.183594 103.105469 746.984375 103.375 746.695312 103.582031 C 746.410156 103.789062 746.089844 103.890625 745.734375 103.886719 Z M 580.949219 96.753906 C 580.746094 96.75 580.554688 96.707031 580.371094 96.628906 C 580.183594 96.554688 580.019531 96.445312 579.875 96.308594 C 579.730469 96.171875 579.613281 96.011719 579.527344 95.832031 C 579.441406 95.652344 579.390625 95.460938 579.371094 95.261719 L 579.378906 95.066406 C 579.386719 94.867188 579.425781 94.675781 579.503906 94.492188 C 579.578125 94.308594 579.683594 94.144531 579.820312 94 C 579.957031 93.855469 580.113281 93.738281 580.292969 93.648438 C 580.472656 93.5625 580.660156 93.507812 580.855469 93.492188 L 590.671875 92.667969 C 590.886719 92.648438 591.09375 92.675781 591.300781 92.738281 C 591.503906 92.804688 591.691406 92.90625 591.855469 93.046875 C 592.019531 93.1875 592.148438 93.351562 592.25 93.542969 C 592.347656 93.734375 592.40625 93.9375 592.425781 94.152344 C 592.429688 94.222656 592.425781 94.292969 592.417969 94.363281 C 592.410156 94.5625 592.371094 94.753906 592.292969 94.941406 C 592.214844 95.125 592.109375 95.289062 591.972656 95.433594 C 591.832031 95.582031 591.675781 95.695312 591.492188 95.78125 C 591.3125 95.871094 591.125 95.921875 590.925781 95.9375 L 581.109375 96.761719 Z M 826.328125 105.6875 C 826.113281 105.679688 825.90625 105.632812 825.710938 105.542969 C 825.515625 105.453125 825.34375 105.328125 825.195312 105.167969 C 825.050781 105.011719 824.9375 104.832031 824.863281 104.628906 C 824.789062 104.425781 824.753906 104.214844 824.761719 104 C 824.777344 103.664062 824.878906 103.359375 825.074219 103.082031 C 826.636719 100.996094 827.808594 98.707031 828.589844 96.21875 C 828.71875 95.847656 828.832031 95.460938 828.964844 94.976562 C 829.019531 94.769531 829.109375 94.578125 829.238281 94.40625 C 829.371094 94.234375 829.527344 94.09375 829.714844 93.984375 C 829.898438 93.875 830.101562 93.804688 830.3125 93.777344 C 830.527344 93.746094 830.738281 93.757812 830.945312 93.8125 C 831.324219 93.910156 831.625 94.121094 831.851562 94.433594 C 832.078125 94.75 832.179688 95.101562 832.15625 95.488281 C 832.167969 95.613281 832.164062 95.738281 832.140625 95.863281 C 832.007812 96.363281 831.878906 96.832031 831.730469 97.265625 C 830.800781 100.128906 829.425781 102.753906 827.605469 105.148438 C 827.265625 105.53125 826.839844 105.710938 826.328125 105.6875 Z M 600.425781 95.199219 C 600.222656 95.195312 600.03125 95.152344 599.84375 95.074219 C 599.660156 94.996094 599.492188 94.886719 599.347656 94.746094 C 599.203125 94.609375 599.085938 94.445312 599 94.265625 C 598.914062 94.082031 598.863281 93.890625 598.851562 93.691406 C 598.84375 93.636719 598.847656 93.582031 598.855469 93.527344 C 598.863281 93.324219 598.90625 93.132812 598.984375 92.945312 C 599.0625 92.761719 599.167969 92.59375 599.308594 92.449219 C 599.449219 92.304688 599.609375 92.1875 599.792969 92.105469 C 599.972656 92.019531 600.164062 91.96875 600.367188 91.953125 L 610.175781 91.292969 C 610.390625 91.277344 610.601562 91.304688 610.804688 91.375 C 611.011719 91.441406 611.195312 91.546875 611.355469 91.691406 C 611.519531 91.832031 611.648438 92 611.746094 92.195312 C 611.839844 92.386719 611.898438 92.59375 611.910156 92.808594 C 611.910156 92.808594 611.90625 92.921875 611.90625 92.972656 C 611.898438 93.171875 611.855469 93.367188 611.777344 93.554688 C 611.699219 93.742188 611.585938 93.90625 611.445312 94.050781 C 611.304688 94.199219 611.140625 94.3125 610.957031 94.398438 C 610.773438 94.484375 610.582031 94.53125 610.378906 94.542969 L 600.570312 95.207031 Z M 727.085938 98.101562 L 726.792969 98.09375 C 723.835938 97.445312 720.644531 96.835938 717.289062 96.300781 L 717.207031 96.300781 C 717.019531 96.257812 716.839844 96.1875 716.675781 96.085938 C 716.511719 95.980469 716.371094 95.851562 716.253906 95.699219 C 716.136719 95.542969 716.046875 95.375 715.988281 95.191406 C 715.933594 95.003906 715.90625 94.816406 715.917969 94.621094 C 715.910156 94.550781 715.914062 94.480469 715.925781 94.410156 C 715.960938 94.183594 716.035156 93.976562 716.15625 93.785156 C 716.277344 93.59375 716.433594 93.433594 716.621094 93.304688 C 716.808594 93.179688 717.011719 93.09375 717.234375 93.050781 C 717.457031 93.007812 717.679688 93.015625 717.898438 93.0625 C 721.253906 93.613281 724.527344 94.226562 727.613281 94.910156 C 727.800781 94.953125 727.976562 95.027344 728.140625 95.128906 C 728.304688 95.234375 728.441406 95.363281 728.558594 95.515625 C 728.675781 95.667969 728.761719 95.839844 728.820312 96.023438 C 728.875 96.207031 728.898438 96.394531 728.886719 96.589844 C 728.894531 96.679688 728.890625 96.773438 728.878906 96.867188 C 728.828125 97.058594 728.75 97.234375 728.636719 97.398438 C 728.523438 97.5625 728.386719 97.699219 728.222656 97.8125 C 728.058594 97.925781 727.878906 98.003906 727.6875 98.050781 C 727.496094 98.097656 727.300781 98.109375 727.105469 98.085938 Z M 620.039062 93.925781 C 619.835938 93.921875 619.636719 93.875 619.449219 93.796875 C 619.261719 93.714844 619.097656 93.605469 618.953125 93.460938 C 618.804688 93.320312 618.691406 93.15625 618.605469 92.96875 C 618.523438 92.78125 618.476562 92.589844 618.464844 92.382812 L 618.472656 92.222656 C 618.476562 92.019531 618.519531 91.824219 618.601562 91.636719 C 618.679688 91.453125 618.789062 91.285156 618.929688 91.140625 C 619.070312 90.996094 619.234375 90.878906 619.417969 90.792969 C 619.601562 90.710938 619.796875 90.660156 619.996094 90.648438 L 629.800781 90.148438 C 630.015625 90.140625 630.222656 90.171875 630.425781 90.246094 C 630.628906 90.316406 630.8125 90.425781 630.96875 90.570312 C 631.128906 90.714844 631.257812 90.886719 631.347656 91.082031 C 631.441406 91.277344 631.492188 91.480469 631.503906 91.695312 L 631.496094 91.828125 C 631.492188 92.03125 631.445312 92.230469 631.363281 92.417969 C 631.285156 92.605469 631.171875 92.773438 631.027344 92.917969 C 630.882812 93.066406 630.714844 93.179688 630.527344 93.261719 C 630.339844 93.34375 630.144531 93.390625 629.9375 93.398438 L 620.269531 93.871094 L 620.039062 93.863281 Z M 639.636719 93.027344 C 639.429688 93.019531 639.234375 92.976562 639.042969 92.894531 C 638.855469 92.8125 638.6875 92.695312 638.542969 92.550781 C 638.394531 92.40625 638.28125 92.238281 638.199219 92.046875 C 638.117188 91.859375 638.074219 91.660156 638.066406 91.453125 L 638.070312 91.339844 C 638.078125 91.132812 638.121094 90.933594 638.203125 90.746094 C 638.285156 90.554688 638.402344 90.386719 638.546875 90.242188 C 638.695312 90.097656 638.863281 89.984375 639.050781 89.902344 C 639.242188 89.820312 639.4375 89.773438 639.644531 89.765625 C 642.910156 89.660156 646.175781 89.570312 649.4375 89.511719 C 649.652344 89.507812 649.863281 89.542969 650.066406 89.621094 C 650.265625 89.699219 650.445312 89.816406 650.601562 89.964844 C 650.761719 90.113281 650.882812 90.289062 650.96875 90.484375 C 651.054688 90.683594 651.101562 90.890625 651.105469 91.109375 C 651.097656 91.316406 651.054688 91.515625 650.96875 91.707031 C 650.886719 91.894531 650.769531 92.0625 650.621094 92.210938 C 650.476562 92.355469 650.304688 92.46875 650.113281 92.550781 C 649.921875 92.632812 649.722656 92.675781 649.515625 92.679688 C 646.25 92.738281 642.988281 92.828125 639.722656 92.933594 Z M 708.046875 94.929688 C 708.003906 94.945312 707.960938 94.941406 707.917969 94.925781 C 704.75 94.5625 701.503906 94.246094 698.25 93.976562 L 698.167969 93.972656 C 697.96875 93.949219 697.777344 93.886719 697.597656 93.789062 C 697.417969 93.691406 697.261719 93.566406 697.132812 93.410156 C 697 93.253906 696.902344 93.078125 696.835938 92.886719 C 696.769531 92.691406 696.742188 92.496094 696.75 92.289062 L 696.75 92.273438 C 696.757812 92.058594 696.804688 91.851562 696.898438 91.65625 C 696.988281 91.460938 697.109375 91.289062 697.269531 91.140625 C 697.425781 90.996094 697.609375 90.882812 697.8125 90.808594 C 698.011719 90.734375 698.222656 90.699219 698.4375 90.707031 L 698.421875 90.707031 C 701.671875 90.976562 705.003906 91.292969 708.167969 91.671875 C 708.371094 91.699219 708.566406 91.757812 708.746094 91.855469 C 708.925781 91.953125 709.085938 92.078125 709.21875 92.234375 C 709.351562 92.390625 709.449219 92.566406 709.519531 92.757812 C 709.585938 92.953125 709.613281 93.152344 709.605469 93.359375 C 709.609375 93.394531 709.609375 93.433594 709.601562 93.472656 C 709.582031 93.6875 709.523438 93.894531 709.421875 94.085938 C 709.320312 94.28125 709.1875 94.445312 709.019531 94.585938 C 708.851562 94.726562 708.664062 94.828125 708.457031 94.890625 C 708.246094 94.953125 708.035156 94.976562 707.816406 94.953125 Z M 659.21875 92.652344 C 659 92.640625 658.796875 92.59375 658.597656 92.503906 C 658.402344 92.414062 658.230469 92.289062 658.085938 92.128906 C 657.9375 91.972656 657.824219 91.792969 657.75 91.589844 C 657.675781 91.386719 657.640625 91.175781 657.648438 90.960938 L 657.652344 90.863281 C 657.660156 90.648438 657.710938 90.441406 657.800781 90.246094 C 657.890625 90.050781 658.015625 89.878906 658.171875 89.730469 C 658.332031 89.582031 658.511719 89.472656 658.714844 89.398438 C 658.917969 89.320312 659.128906 89.289062 659.34375 89.296875 C 662.769531 89.277344 666.0625 89.285156 669.125 89.320312 C 669.339844 89.328125 669.546875 89.375 669.742188 89.464844 C 669.941406 89.554688 670.113281 89.679688 670.257812 89.839844 C 670.40625 89.996094 670.515625 90.179688 670.589844 90.378906 C 670.667969 90.582031 670.699219 90.792969 670.691406 91.007812 C 670.683594 91.222656 670.636719 91.429688 670.546875 91.625 C 670.457031 91.824219 670.332031 91.996094 670.171875 92.140625 C 670.015625 92.289062 669.832031 92.398438 669.632812 92.476562 C 669.429688 92.550781 669.21875 92.582031 669.003906 92.574219 C 665.90625 92.542969 662.628906 92.535156 659.222656 92.535156 Z M 688.542969 93.289062 L 688.445312 93.285156 C 685.300781 93.167969 682.078125 93.046875 678.804688 92.925781 C 678.589844 92.917969 678.382812 92.867188 678.1875 92.777344 C 677.992188 92.6875 677.820312 92.5625 677.671875 92.40625 C 677.527344 92.246094 677.414062 92.066406 677.339844 91.863281 C 677.265625 91.660156 677.230469 91.453125 677.238281 91.234375 C 677.25 90.789062 677.414062 90.410156 677.738281 90.097656 C 678.066406 89.785156 678.457031 89.636719 678.910156 89.652344 C 682.414062 89.78125 685.703125 89.90625 688.679688 90.015625 C 688.898438 90.023438 689.101562 90.074219 689.300781 90.164062 C 689.496094 90.253906 689.667969 90.378906 689.816406 90.535156 C 689.960938 90.695312 690.074219 90.875 690.148438 91.078125 C 690.222656 91.28125 690.257812 91.488281 690.25 91.707031 C 690.242188 91.921875 690.191406 92.128906 690.101562 92.324219 C 690.011719 92.519531 689.886719 92.691406 689.730469 92.839844 C 689.570312 92.984375 689.390625 93.097656 689.1875 93.171875 C 688.984375 93.246094 688.777344 93.28125 688.558594 93.273438 Z M 775.757812 95.957031 C 775.539062 95.949219 775.335938 95.902344 775.136719 95.8125 C 774.941406 95.722656 774.769531 95.597656 774.621094 95.4375 C 774.476562 95.28125 774.363281 95.101562 774.289062 94.898438 C 774.214844 94.695312 774.179688 94.484375 774.1875 94.269531 L 774.214844 93.535156 C 774.324219 90.398438 774.726562 87.300781 775.425781 84.238281 C 775.476562 84.03125 775.5625 83.835938 775.691406 83.660156 C 775.816406 83.488281 775.96875 83.34375 776.152344 83.226562 C 776.335938 83.113281 776.535156 83.039062 776.746094 83.003906 C 776.960938 82.96875 777.171875 82.976562 777.378906 83.023438 C 777.765625 83.113281 778.078125 83.316406 778.316406 83.632812 C 778.550781 83.949219 778.660156 84.304688 778.636719 84.703125 C 778.640625 84.808594 778.636719 84.917969 778.625 85.027344 C 777.882812 87.855469 777.417969 90.730469 777.226562 93.648438 L 777.203125 94.332031 C 777.207031 94.554688 777.164062 94.769531 777.082031 94.972656 C 776.996094 95.179688 776.875 95.359375 776.714844 95.515625 C 776.558594 95.671875 776.375 95.789062 776.167969 95.871094 C 775.964844 95.953125 775.75 95.988281 775.527344 95.984375 Z M 831.519531 87.246094 C 831.320312 87.242188 831.128906 87.203125 830.949219 87.125 C 830.765625 87.050781 830.601562 86.945312 830.457031 86.8125 C 830.308594 86.679688 830.195312 86.523438 830.105469 86.347656 C 830.015625 86.167969 829.960938 85.980469 829.941406 85.785156 C 829.644531 82.703125 828.824219 79.761719 827.484375 76.96875 C 827.367188 76.730469 827.308594 76.480469 827.316406 76.214844 C 827.324219 75.910156 827.410156 75.632812 827.578125 75.378906 C 827.742188 75.125 827.960938 74.929688 828.234375 74.796875 C 828.425781 74.703125 828.632812 74.648438 828.847656 74.636719 C 829.0625 74.625 829.269531 74.652344 829.472656 74.722656 C 829.679688 74.792969 829.859375 74.902344 830.023438 75.042969 C 830.183594 75.1875 830.3125 75.355469 830.40625 75.546875 C 831.925781 78.675781 832.855469 81.972656 833.199219 85.433594 L 833.195312 85.515625 L 833.191406 85.628906 C 833.1875 85.828125 833.148438 86.019531 833.074219 86.199219 C 832.996094 86.382812 832.894531 86.546875 832.757812 86.691406 C 832.625 86.835938 832.46875 86.953125 832.292969 87.042969 C 832.113281 87.132812 831.929688 87.183594 831.730469 87.207031 Z M 780.335938 77.183594 C 780.078125 77.171875 779.835938 77.101562 779.613281 76.976562 C 779.34375 76.828125 779.132812 76.621094 778.980469 76.355469 C 778.832031 76.085938 778.761719 75.800781 778.769531 75.496094 C 778.785156 75.242188 778.851562 75.003906 778.976562 74.785156 C 780.660156 71.683594 782.894531 69.046875 785.679688 66.882812 C 785.847656 66.75 786.035156 66.652344 786.246094 66.59375 C 786.453125 66.53125 786.664062 66.515625 786.878906 66.539062 C 787.09375 66.566406 787.292969 66.628906 787.484375 66.734375 C 787.671875 66.839844 787.832031 66.976562 787.96875 67.148438 C 788.101562 67.320312 788.195312 67.507812 788.25 67.71875 C 788.308594 67.925781 788.320312 68.136719 788.292969 68.351562 C 788.265625 68.566406 788.199219 68.769531 788.089844 68.957031 C 787.980469 69.144531 787.84375 69.304688 787.671875 69.433594 C 785.257812 71.351562 783.304688 73.65625 781.820312 76.359375 C 781.652344 76.65625 781.417969 76.882812 781.109375 77.03125 C 780.800781 77.179688 780.480469 77.230469 780.140625 77.175781 Z M 822.992188 70.199219 C 822.613281 70.179688 822.28125 70.039062 821.996094 69.789062 C 819.660156 67.777344 817.023438 66.300781 814.089844 65.351562 C 813.734375 65.234375 813.453125 65.019531 813.246094 64.707031 C 813.039062 64.394531 812.949219 64.050781 812.980469 63.679688 C 812.960938 63.53125 812.964844 63.382812 812.996094 63.238281 C 813.066406 63.035156 813.171875 62.851562 813.3125 62.691406 C 813.457031 62.53125 813.625 62.402344 813.816406 62.308594 C 814.007812 62.210938 814.210938 62.15625 814.425781 62.140625 C 814.640625 62.128906 814.851562 62.15625 815.054688 62.222656 C 818.40625 63.292969 821.40625 64.984375 824.0625 67.289062 C 824.449219 67.617188 824.640625 68.039062 824.632812 68.550781 C 824.617188 68.9375 824.488281 69.28125 824.238281 69.578125 C 823.875 70.039062 823.398438 70.246094 822.8125 70.191406 Z M 795.289062 65.414062 C 794.9375 65.402344 794.625 65.289062 794.347656 65.074219 C 794.070312 64.859375 793.882812 64.585938 793.78125 64.25 C 793.734375 64.078125 793.714844 63.902344 793.722656 63.726562 C 793.730469 63.378906 793.84375 63.066406 794.054688 62.789062 C 794.265625 62.511719 794.539062 62.324219 794.871094 62.21875 C 798.164062 61.226562 801.53125 60.714844 804.972656 60.6875 C 805.1875 60.699219 805.394531 60.746094 805.589844 60.835938 C 805.785156 60.925781 805.957031 61.050781 806.105469 61.210938 C 806.25 61.367188 806.363281 61.546875 806.4375 61.75 C 806.511719 61.953125 806.546875 62.164062 806.539062 62.378906 C 806.53125 62.59375 806.480469 62.800781 806.390625 62.996094 C 806.300781 63.191406 806.175781 63.363281 806.019531 63.511719 C 805.859375 63.660156 805.679688 63.769531 805.476562 63.84375 C 805.273438 63.921875 805.066406 63.953125 804.847656 63.945312 C 801.730469 63.960938 798.683594 64.425781 795.699219 65.332031 C 795.507812 65.394531 795.3125 65.417969 795.109375 65.410156 Z M 795.289062 65.414062 " fill-opacity="1" fill-rule="nonzero"/></g></g></g><g clip-path="url(#bd90b7a45a)"><g clip-path="url(#6cc3bdbfbb)"><g clip-path="url(#35ce78eaea)"><path fill="#ffffff" d="M 860.78125 65.480469 L 859.765625 65.652344 L 884.847656 82.554688 L 881.726562 115.910156 L 899.925781 99.242188 L 913.417969 119.570312 L 949.847656 53.527344 L 951.121094 51.226562 Z M 941.0625 55.1875 L 886.304688 80.652344 L 866.089844 67.03125 Z M 945.535156 56.742188 L 913.148438 115.027344 L 897.460938 91.4375 Z M 898.546875 97.28125 L 887.980469 106.964844 L 895.9375 93.351562 Z M 938.445312 58.90625 L 895.191406 90.226562 L 895.007812 90.351562 L 884.734375 107.902344 L 887.089844 82.75 Z M 938.445312 58.90625 " fill-opacity="1" fill-rule="nonzero"/></g></g></g><g fill="#ffffff" fill-opacity="1"><g transform="translate(343.502411, 113.627937)"><g><path d="M 116.875 -94.09375 C 117.21875 -93.082031 117.363281 -92.101562 117.3125 -91.15625 C 117.269531 -90.21875 116.992188 -89.207031 116.484375 -88.125 C 115.984375 -87.050781 115.484375 -86.109375 114.984375 -85.296875 C 114.492188 -84.484375 113.664062 -83.4375 112.5 -82.15625 C 111.332031 -80.882812 110.367188 -79.875 109.609375 -79.125 C 108.859375 -78.382812 107.707031 -77.265625 106.15625 -75.765625 C 104.738281 -74.390625 103.65625 -73.328125 102.90625 -72.578125 C 102.164062 -71.835938 101.113281 -70.757812 99.75 -69.34375 C 98.394531 -67.925781 97.332031 -66.738281 96.5625 -65.78125 C 95.800781 -64.820312 94.890625 -63.644531 93.828125 -62.25 C 92.773438 -60.851562 91.945312 -59.566406 91.34375 -58.390625 C 90.75 -57.222656 90.15625 -55.945312 89.5625 -54.5625 C 88.976562 -53.1875 88.582031 -51.8125 88.375 -50.4375 C 88.175781 -49.0625 88.109375 -47.6875 88.171875 -46.3125 C 88.234375 -45.09375 87.875 -44.035156 87.09375 -43.140625 C 86.3125 -42.253906 85.328125 -41.773438 84.140625 -41.703125 C 82.953125 -41.640625 81.914062 -41.992188 81.03125 -42.765625 C 80.144531 -43.535156 79.675781 -44.539062 79.625 -45.78125 C 79.507812 -47.613281 79.570312 -49.445312 79.8125 -51.28125 C 80.050781 -53.125 80.507812 -54.914062 81.1875 -56.65625 C 81.863281 -58.40625 82.550781 -60.023438 83.25 -61.515625 C 83.957031 -63.003906 84.921875 -64.59375 86.140625 -66.28125 C 87.367188 -67.96875 88.441406 -69.394531 89.359375 -70.5625 C 90.273438 -71.738281 91.5 -73.128906 93.03125 -74.734375 C 94.570312 -76.335938 95.757812 -77.5625 96.59375 -78.40625 C 97.4375 -79.25 98.609375 -80.421875 100.109375 -81.921875 C 105.316406 -86.953125 108.15625 -90.125 108.625 -91.4375 C 107.320312 -92.375 104.5625 -93.164062 100.34375 -93.8125 C 88.539062 -95.632812 76.84375 -95.285156 65.25 -92.765625 C 53.664062 -90.242188 45.140625 -86.207031 39.671875 -80.65625 C 35.796875 -76.757812 34.253906 -72.582031 35.046875 -68.125 C 35.296875 -66.34375 35.96875 -64.398438 37.0625 -62.296875 C 38.164062 -60.203125 39.3125 -58.285156 40.5 -56.546875 C 41.6875 -54.804688 43.398438 -52.648438 45.640625 -50.078125 C 47.878906 -47.503906 49.707031 -45.457031 51.125 -43.9375 C 52.539062 -42.425781 54.613281 -40.285156 57.34375 -37.515625 C 59.1875 -35.597656 60.566406 -34.140625 61.484375 -33.140625 C 62.410156 -32.148438 63.710938 -30.757812 65.390625 -28.96875 C 67.066406 -27.1875 68.34375 -25.773438 69.21875 -24.734375 C 70.101562 -23.691406 71.210938 -22.335938 72.546875 -20.671875 C 73.878906 -19.003906 74.875 -17.585938 75.53125 -16.421875 C 76.1875 -15.265625 76.953125 -13.9375 77.828125 -12.4375 C 78.710938 -10.9375 79.316406 -9.554688 79.640625 -8.296875 C 79.972656 -7.046875 80.257812 -5.71875 80.5 -4.3125 C 80.75 -2.914062 80.800781 -1.5625 80.65625 -0.25 C 80.507812 1.050781 80.207031 2.351562 79.75 3.65625 C 76.976562 11.570312 70.863281 17.054688 61.40625 20.109375 C 59.4375 20.734375 57.335938 21.238281 55.109375 21.625 C 49.046875 22.695312 42.242188 22.90625 34.703125 22.25 C 29.648438 21.8125 24.941406 20.828125 20.578125 19.296875 C 16.222656 17.765625 12.585938 15.929688 9.671875 13.796875 C 6.765625 11.660156 4.410156 9.347656 2.609375 6.859375 C 0.816406 4.378906 -0.269531 1.894531 -0.65625 -0.59375 C -1 -2.5625 -0.914062 -4.421875 -0.40625 -6.171875 C 0.101562 -7.929688 0.984375 -9.503906 2.234375 -10.890625 C 3.492188 -12.285156 5.066406 -13.390625 6.953125 -14.203125 C 7.640625 -14.546875 8.363281 -14.660156 9.125 -14.546875 C 9.894531 -14.441406 10.582031 -14.175781 11.1875 -13.75 C 11.800781 -13.332031 12.285156 -12.75 12.640625 -12 C 13.097656 -10.90625 13.113281 -9.8125 12.6875 -8.71875 C 12.269531 -7.632812 11.515625 -6.835938 10.421875 -6.328125 C 8.335938 -5.410156 7.46875 -3.96875 7.8125 -2 C 8.070312 -0.5625 8.835938 0.960938 10.109375 2.578125 C 11.378906 4.203125 13.125 5.78125 15.34375 7.3125 C 17.570312 8.84375 20.441406 10.195312 23.953125 11.375 C 27.472656 12.550781 31.320312 13.328125 35.5 13.703125 C 37.351562 13.847656 39.21875 13.941406 41.09375 13.984375 C 42.96875 14.035156 45.21875 13.988281 47.84375 13.84375 C 50.46875 13.707031 52.945312 13.367188 55.28125 12.828125 C 57.625 12.285156 59.898438 11.550781 62.109375 10.625 C 64.316406 9.695312 66.257812 8.390625 67.9375 6.703125 C 69.613281 5.023438 70.847656 3.070312 71.640625 0.84375 C 71.992188 -0.164062 72.148438 -1.242188 72.109375 -2.390625 C 72.066406 -3.535156 71.769531 -4.765625 71.21875 -6.078125 C 70.664062 -7.398438 70.097656 -8.648438 69.515625 -9.828125 C 68.929688 -11.015625 68.003906 -12.414062 66.734375 -14.03125 C 65.460938 -15.65625 64.378906 -17.03125 63.484375 -18.15625 C 62.597656 -19.28125 61.296875 -20.769531 59.578125 -22.625 C 57.859375 -24.488281 56.503906 -25.9375 55.515625 -26.96875 C 54.535156 -28 53.097656 -29.519531 51.203125 -31.53125 C 48.722656 -34.09375 46.84375 -36.050781 45.5625 -37.40625 C 44.28125 -38.757812 42.554688 -40.632812 40.390625 -43.03125 C 38.234375 -45.425781 36.550781 -47.453125 35.34375 -49.109375 C 34.144531 -50.765625 32.851562 -52.660156 31.46875 -54.796875 C 30.082031 -56.929688 28.988281 -58.96875 28.1875 -60.90625 C 27.382812 -62.851562 26.84375 -64.789062 26.5625 -66.71875 C 25.320312 -74.039062 27.648438 -80.703125 33.546875 -86.703125 C 40.023438 -93.242188 49.679688 -97.988281 62.515625 -100.9375 C 75.359375 -103.894531 88.40625 -104.347656 101.65625 -102.296875 C 103.519531 -101.984375 105.164062 -101.644531 106.59375 -101.28125 C 108.019531 -100.925781 109.492188 -100.441406 111.015625 -99.828125 C 112.546875 -99.210938 113.804688 -98.414062 114.796875 -97.4375 C 115.796875 -96.46875 116.488281 -95.351562 116.875 -94.09375 Z M 116.875 -94.09375 "/></g></g></g></svg>